<svg xmlns="http://www.w3.org/2000/svg" width="82" height="70" viewBox="0 0 82 70">
  <g id="グループ_282" data-name="グループ 282" transform="translate(1325 150)">
    <rect id="長方形_85" data-name="長方形 85" width="82" height="70" transform="translate(-1325 -150)" fill="none"/>
    <path id="パス_20" data-name="パス 20" d="M121.54,81.512H92.891l-7.561-8.528a2.523,2.523,0,0,0-.806-.6v-10a1.083,1.083,0,0,0-2.167,0v10a2.528,2.528,0,0,0-.811.6l-7.559,8.528H45.341l-2.889,11.2h2.969v30.708a1.445,1.445,0,0,0,1.443,1.444h19.6v.964a1.451,1.451,0,0,0,1.447,1.444H98.972a1.446,1.446,0,0,0,1.444-1.444v-.964h19.6a1.447,1.447,0,0,0,1.446-1.446V92.707h2.967ZM66.463,121.969H64.087v-4.692H58.109v4.692H56.663v-4.692H50.709v4.692h-2.4V92.707H64.924a2.424,2.424,0,0,0,1.539,2.309Zm31.062,2.407H93.038v-17.7h-.026a9.272,9.272,0,0,0-18.486,0H74.5v17.7H69.353V94.361L83.439,78.472,97.525,94.359Zm21.044-2.405h-2.485v-4.694h-5.967v4.694h-1.445v-4.694h-5.967v4.694h-2.291V95.025a2.454,2.454,0,0,0,1.539-2.318H118.57ZM77.215,90.458a6.156,6.156,0,0,0,12.311,0h0a6.154,6.154,0,1,0-12.308,0Zm10.867,0h0a4.709,4.709,0,1,1-4.708-4.71A4.712,4.712,0,0,1,88.079,90.458ZM64.064,101.475H58.109v5.812h5.955ZM50.709,115.831h5.954v-5.655H50.709Zm13.355-5.655H58.109v5.655h5.978v-5.563h-.023Zm-13.355-2.889h5.954v-5.812H50.709Zm.027-7.255h5.926V93.883A6.627,6.627,0,0,0,50.737,100.032Zm7.372-6.15v6.15h5.928A6.629,6.629,0,0,0,58.109,93.882Zm57.976,16.294h-5.967v5.655h5.967Zm-.012-10.46h-.018a6.631,6.631,0,0,0-5.936-6.2v6.519h5.955Zm-7.4,1.76h-5.956v5.812h5.956Zm0,8.7h-5.967v5.655h5.967Zm7.4-8.7h-5.955v5.812h5.955Zm-7.4-7.965a6.629,6.629,0,0,0-5.937,6.2h-.019v.315h5.956ZM82.719,87.783v2.611a.731.731,0,0,0,.263.561l2.833,2.311a.722.722,0,1,0,.914-1.118l-2.568-2.1v-2.27a.721.721,0,1,0-1.442,0Zm6.959-17a21.967,21.967,0,0,0,3.923,1.8,9.545,9.545,0,0,0,5.245.235l.057-.015a10.089,10.089,0,0,0,1.579-.552V62.777L97.057,64.3a2.085,2.085,0,0,1-.291.106,1.387,1.387,0,0,1-.829-.087,14.875,14.875,0,0,1-2.419-1.156,11.193,11.193,0,0,0-7.762-1.09v9.095l1.909-.652A3.376,3.376,0,0,1,89.678,70.786Z" transform="translate(-1367.452 -209.273)" fill="#db7720"/>
  </g>
</svg>
