<svg xmlns="http://www.w3.org/2000/svg" width="82" height="70" viewBox="0 0 82 70">
  <g id="グループ_278" data-name="グループ 278" transform="translate(439 150)">
    <rect id="長方形_89" data-name="長方形 89" width="82" height="70" transform="translate(-439 -150)" fill="none"/>
    <g id="グループ_15" data-name="グループ 15" transform="translate(-888.953 -451.965)">
      <path id="パス_22" data-name="パス 22" d="M520.464,456.986c-2.215,0-4.432-.042-6.646.014a2.43,2.43,0,0,1-2.608-2.588c.063-2.14.013-4.283.02-6.425a.524.524,0,0,0-.285-.526,18.612,18.612,0,0,1-9.332-13.748,18.42,18.42,0,0,1,5.256-16.133,18.071,18.071,0,0,1,10.412-5.451,18.612,18.612,0,0,1,16.2,4.859,17.849,17.849,0,0,1,5.947,11.785c.721,7.976-2.4,14.163-9.128,18.509a1.04,1.04,0,0,0-.576,1.03c.034,2.056.015,4.112.014,6.169a2.309,2.309,0,0,1-2.516,2.507Q523.842,456.99,520.464,456.986Zm-.008-4.6c1.432,0,2.864-.008,4.3.007.308,0,.39-.089.388-.393-.013-1.873.007-3.746-.012-5.618a2.365,2.365,0,0,1,1.491-2.344,14.472,14.472,0,1,0-20.5-11.369,14.149,14.149,0,0,0,8.2,11.361,2.433,2.433,0,0,1,1.508,2.375c-.013,1.873,0,3.746-.01,5.618,0,.294.089.372.373.37C517.616,452.376,519.036,452.383,520.456,452.383Z" transform="translate(-30.005 -93.062)" fill="#db7720"/>
      <path id="パス_23" data-name="パス 23" d="M574.856,716.855c-2.312,0-4.625.006-6.937,0a2.307,2.307,0,0,1-.844-4.446,2.351,2.351,0,0,1,.9-.168q6.918,0,13.837,0a2.307,2.307,0,1,1-.015,4.612Q578.325,716.859,574.856,716.855Z" transform="translate(-84.418 -347.446)" fill="#db7720"/>
      <path id="パス_24" data-name="パス 24" d="M610.963,308.2c0-1.309-.01-2.618,0-3.928a2.306,2.306,0,0,1,4.588-.332,1.821,1.821,0,0,1,.023.292c0,2.643.005,5.286,0,7.929a2.3,2.3,0,0,1-4.5.688,2.628,2.628,0,0,1-.119-.831Q610.965,310.113,610.963,308.2Z" transform="translate(-122.8 0)" fill="#db7720"/>
      <path id="パス_25" data-name="パス 25" d="M473.944,372.208a2.272,2.272,0,0,1-1.775-.683q-2.749-2.752-5.5-5.5a2.305,2.305,0,1,1,3.266-3.251q2.752,2.748,5.5,5.5a2.3,2.3,0,0,1,.513,2.54A2.217,2.217,0,0,1,473.944,372.208Z" transform="translate(0 -50.884)" fill="#db7720"/>
      <path id="パス_26" data-name="パス 26" d="M721.974,372.2a2.182,2.182,0,0,1-2.023-1.221,2.225,2.225,0,0,1,.151-2.4,2.648,2.648,0,0,1,.331-.391q2.71-2.715,5.425-5.424a2.31,2.31,0,1,1,3.324,3.207c-.588.606-1.192,1.2-1.789,1.793q-1.856,1.856-3.712,3.711A2.218,2.218,0,0,1,721.974,372.2Z" transform="translate(-214.863 -50.871)" fill="#db7720"/>
    </g>
  </g>
</svg>
