<svg xmlns="http://www.w3.org/2000/svg" width="82" height="70.225" viewBox="0 0 82 70.225">
  <g id="グループ_281" data-name="グループ 281" transform="translate(1174 150)">
    <rect id="長方形_86" data-name="長方形 86" width="82" height="70" transform="translate(-1174 -150)" fill="none"/>
    <g id="グループ_85" data-name="グループ 85" transform="translate(-1285.284 -232.921)">
      <path id="パス_82" data-name="パス 82" d="M244.835,104.669a.246.246,0,0,0,.213,0c4.8-2.365,10.39-5.912,11.066-12.35a7.219,7.219,0,0,0-1.713-5.589,5.186,5.186,0,0,0-3.856-1.81c-2.07,0-4.049,1.337-5.6,3.779-1.554-2.442-3.533-3.779-5.6-3.779a5.186,5.186,0,0,0-3.856,1.81,7.218,7.218,0,0,0-1.713,5.589C234.445,98.757,240.038,102.3,244.835,104.669Z" transform="translate(-92.62 0)" fill="#db7720"/>
      <path id="パス_83" data-name="パス 83" d="M124.62,254.689c3.039,8.9,8.247,13.228,15.925,13.228a29.415,29.415,0,0,0,9.587-1.853v21.345a2.19,2.19,0,0,0,4.381,0V266.064a29.416,29.416,0,0,0,9.587,1.853c7.678,0,12.886-4.326,15.924-13.228a6.307,6.307,0,0,0-5.078-8.257c-10.264-1.409-18.063,2.643-22.624,11.6-4.56-8.957-12.355-13.008-22.624-11.6a6.306,6.306,0,0,0-5.078,8.257Zm49.727-3.916a1.872,1.872,0,0,1,1.338.887,1.9,1.9,0,0,1,.193,1.614c-2.421,7.1-6.055,10.262-11.778,10.262a26.191,26.191,0,0,1-8.679-1.791C159.028,253.216,165.373,249.533,174.347,250.773Zm-45.389.888a1.88,1.88,0,0,1,1.339-.888,24.3,24.3,0,0,1,3.314-.238c7.221,0,12.465,3.769,15.612,11.21a26.191,26.191,0,0,1-8.679,1.791c-5.723,0-9.356-3.166-11.779-10.263A1.9,1.9,0,0,1,128.958,251.662Z" transform="translate(0 -136.454)" fill="#db7720"/>
    </g>
  </g>
</svg>
