<svg xmlns="http://www.w3.org/2000/svg" width="30.767" height="46" viewBox="0 0 30.767 46">
  <g id="グループ_69" data-name="グループ 69" transform="translate(-179.536 -103.286)">
    <path id="パス_36" data-name="パス 36" d="M184.473,129.046a6.934,6.934,0,0,0-2.54,1.953c-.338.485-.631,1-.944,1.5l-.552,1.356a2.116,2.116,0,0,1-.048.277,20.164,20.164,0,0,0-.59,9.116,44.69,44.69,0,0,0,1.745,7.186,52.6,52.6,0,0,0,3.361,8.056,45.3,45.3,0,0,0,3.623,5.894,21.418,21.418,0,0,0,4.381,4.57,13.633,13.633,0,0,0,6.269,2.93,7.187,7.187,0,0,0,3.077-.438c-.044-.126-.077-.235-.121-.34-.158-.382-.32-.762-.481-1.143L199.22,164.2c-.658-1.562-1.324-3.121-1.967-4.689a.556.556,0,0,0-.524-.4,4.362,4.362,0,0,1-3.554-2.358c-.5-.943-.979-1.9-1.388-2.89-1.033-2.495-2.024-5.007-3.026-7.514a4.547,4.547,0,0,1,.655-4.785.509.509,0,0,0,.089-.42c-.568-1.392-1.157-2.777-1.742-4.163q-1.309-3.1-2.616-6.207C184.91,130.209,184.7,129.634,184.473,129.046Z" transform="translate(0 -22.636)" fill="#fafafa"/>
    <path id="パス_37" data-name="パス 37" d="M242.9,117.1c1.2-.511,2.891-1.221,4.094-1.726a1.4,1.4,0,0,0,.85-2.053c-1.116-2.657-2.226-5.316-3.353-7.968a4.72,4.72,0,0,0-1.018-1.878l-.472-.192a6.211,6.211,0,0,0-1.076.213c-.918.352-2.306.962-3.215,1.337-.555.229-1.117.444-1.632.648l5.054,12C242.367,117.365,242.626,117.22,242.9,117.1Z" transform="translate(-50.561)" fill="#fafafa"/>
    <path id="パス_38" data-name="パス 38" d="M348.319,368.878c1.521-.641,3.536-1.476,5.049-2.136a1.315,1.315,0,0,0,.666-1.771c-.106-.277-.228-.548-.343-.821q-1.763-4.187-3.528-8.373a1.422,1.422,0,0,0-2.071-.827c-.733.306-1.96.806-2.683,1.134-.739.337-1.462.71-2.18,1.062l4.957,11.768A.946.946,0,0,0,348.319,368.878Z" transform="translate(-143.845 -220.997)" fill="#fafafa"/>
  </g>
</svg>
