<svg xmlns="http://www.w3.org/2000/svg" width="17.087" height="25.547" viewBox="0 0 17.087 25.547">
  <g id="グループ_58" data-name="グループ 58" transform="translate(-179.536 -103.286)">
    <path id="パス_36" data-name="パス 36" d="M182.278,129.046a3.851,3.851,0,0,0-1.411,1.085c-.188.27-.351.556-.525.835l-.307.753a1.176,1.176,0,0,1-.027.154,11.2,11.2,0,0,0-.328,5.063,24.817,24.817,0,0,0,.969,3.991,29.211,29.211,0,0,0,1.867,4.474,25.153,25.153,0,0,0,2.012,3.273,11.9,11.9,0,0,0,2.433,2.538,7.571,7.571,0,0,0,3.481,1.627,3.992,3.992,0,0,0,1.709-.243c-.025-.07-.043-.131-.067-.189-.088-.212-.178-.423-.267-.635l-1.351-3.2c-.366-.867-.735-1.733-1.093-2.6a.309.309,0,0,0-.291-.223,2.422,2.422,0,0,1-1.974-1.31c-.279-.524-.544-1.058-.771-1.605-.574-1.385-1.124-2.781-1.681-4.173a2.525,2.525,0,0,1,.364-2.657.283.283,0,0,0,.049-.233c-.316-.773-.643-1.542-.967-2.312q-.727-1.723-1.453-3.447C182.521,129.692,182.4,129.373,182.278,129.046Z" transform="translate(0 -24.025)" fill="#333"/>
    <path id="パス_37" data-name="パス 37" d="M240.308,110.96c.666-.284,1.606-.678,2.273-.959a.779.779,0,0,0,.472-1.14c-.62-1.475-1.236-2.952-1.862-4.425a2.622,2.622,0,0,0-.565-1.043l-.262-.107a3.45,3.45,0,0,0-.6.119c-.51.2-1.281.534-1.786.743-.308.127-.62.246-.907.36l2.807,6.664C240.014,111.1,240.157,111.024,240.308,110.96Z" transform="translate(-53.664 0)" fill="#333"/>
    <path id="パス_38" data-name="パス 38" d="M346.056,362.609c.845-.356,1.964-.82,2.8-1.186a.73.73,0,0,0,.37-.983c-.059-.154-.127-.3-.191-.456q-.979-2.325-1.959-4.65a.79.79,0,0,0-1.15-.459c-.407.17-1.089.447-1.49.63s-.812.394-1.211.59l2.753,6.536A.525.525,0,0,0,346.056,362.609Z" transform="translate(-152.67 -234.556)" fill="#333"/>
  </g>
</svg>
