<svg xmlns="http://www.w3.org/2000/svg" width="83.3" height="54.3" viewBox="0 0 83.3 54.3">
  <g id="グループ_292" data-name="グループ 292" transform="translate(718 -879)">
    <rect id="長方形_90" data-name="長方形 90" width="83.3" height="54.3" transform="translate(-718 879)" fill="none"/>
    <g id="グループ_291" data-name="グループ 291" transform="translate(-1449.455 -9)">
      <path id="多角形_1" data-name="多角形 1" d="M7.157,4.532a3,3,0,0,1,5.2,0l4.578,7.974A3,3,0,0,1,14.337,17H5.181a3,3,0,0,1-2.6-4.494Z" transform="matrix(0.921, 0.391, -0.391, 0.921, 738.097, 916.862)" fill="#9fe4f3"/>
      <circle id="楕円形_27" data-name="楕円形 27" cx="7.5" cy="7.5" r="7.5" transform="translate(782 913)" fill="#e5965c"/>
      <rect id="長方形_16" data-name="長方形 16" width="15" height="15" rx="3" transform="matrix(0.799, 0.602, -0.602, 0.799, 760.024, 900.997)" fill="#d3f36b"/>
      <path id="多角形_3" data-name="多角形 3" d="M7.157,4.532a3,3,0,0,1,5.2,0l4.578,7.974A3,3,0,0,1,14.337,17H5.181a3,3,0,0,1-2.6-4.494Z" transform="translate(800.961 904.981) rotate(169)" fill="#9fe4f3"/>
    </g>
  </g>
</svg>
